<svg width="18" height="17" viewBox="0 0 18 17" fill="none" xmlns="http://www.w3.org/2000/svg">
<ellipse cx="0.680416" cy="5.62651" rx="0.680416" ry="0.706586" fill="white"/>
<path fill-rule="evenodd" clip-rule="evenodd" d="M5.49566 0.0431228C5.28211 0.100278 4.38606 0.925465 2.69549 2.62179L0.209351 5.11641V5.62526V6.13421L2.59081 8.53377C3.90066 9.85347 5.09945 11 5.2549 11.0817C5.86371 11.4014 6.61405 11.1459 6.87062 10.5319C7.14572 9.87356 7.00733 9.62736 5.50969 8.11055L4.13483 6.71821L8.47902 6.74972L12.8232 6.78123L13.5036 7.10542C14.3876 7.52676 15.0137 8.14939 15.424 9.01519C15.7186 9.63709 15.7542 9.81411 15.7542 10.6566C15.7542 11.5119 15.7219 11.6666 15.4115 12.2971C14.9832 13.1671 14.1575 13.9491 13.3201 14.2777C12.7702 14.4936 12.4904 14.519 10.0661 14.573L7.41359 14.6322L7.16121 14.9259C6.69884 15.464 6.87136 16.3377 7.50383 16.6612C7.85586 16.8412 12.3284 16.8128 13.2152 16.6249C15.4223 16.1572 17.4409 14.1531 17.89 11.9839C18.0551 11.1862 18.0313 9.8453 17.8389 9.09925C17.3004 7.01194 15.5235 5.23512 13.4362 4.69654C12.8999 4.55826 12.0774 4.53062 8.49012 4.53062C6.12353 4.53062 4.18717 4.5144 4.18717 4.49451C4.18717 4.47472 4.75066 3.90192 5.43924 3.22182C6.12792 2.54161 6.76825 1.82309 6.86214 1.62514C7.2839 0.736414 6.46185 -0.215435 5.49566 0.0431228Z" fill="white"/>
</svg>
