<svg width="16" height="16" viewBox="0 0 16 16" fill="none" xmlns="http://www.w3.org/2000/svg">
<path fill-rule="evenodd" clip-rule="evenodd" d="M7.24072 0.0191545C5.37217 0.210967 3.67182 1.01651 2.35004 2.33616C-0.783347 5.46443 -0.783347 10.5394 2.35004 13.6677C3.62295 14.9385 5.16734 15.6966 7.02171 15.9608C7.39337 16.0137 8.62251 16.0129 9.00843 15.9594C12.1275 15.5273 14.6383 13.4525 15.6133 10.5016C15.8958 9.64634 16 8.97314 16 8.00193C16 7.03066 15.8958 6.35734 15.6132 5.50226C14.6494 2.58568 12.1771 0.514781 9.11794 0.061456C8.73533 0.00475133 7.6248 -0.0202664 7.24072 0.0191545ZM9.02408 1.31582C10.9214 1.61246 12.5849 2.67704 13.6402 4.27C14.8892 6.15538 15.1106 8.5759 14.2233 10.6445C13.2871 12.8271 11.3555 14.3225 8.99279 14.6939C8.52655 14.7672 7.46774 14.7665 7.00917 14.6926C4.02915 14.2124 1.78581 11.9627 1.32067 8.98824C1.24649 8.5139 1.24649 7.48996 1.32067 7.01563C1.6209 5.09578 2.66354 3.44733 4.2501 2.38416C5.19402 1.75161 6.2341 1.38667 7.45973 1.25795C7.71425 1.23121 8.72113 1.26847 9.02408 1.31582ZM7.70887 4.2944C7.52903 4.3583 7.3782 4.49369 7.27098 4.68745C7.19091 4.8321 7.17824 4.88743 7.17887 5.08998C7.17974 5.37106 7.24307 5.513 7.45469 5.70822C7.86183 6.0838 8.49602 5.95915 8.76799 5.45006C8.81899 5.35459 8.83507 5.26899 8.83564 5.08998C8.83626 4.88743 8.82359 4.8321 8.74353 4.68745C8.6925 4.59523 8.60177 4.47938 8.54194 4.43C8.32879 4.25419 7.98128 4.19761 7.70887 4.2944ZM7.80817 6.73273C7.65396 6.78774 7.51458 6.91884 7.44083 7.07825C7.38624 7.19626 7.38286 7.32752 7.3822 9.35123L7.38151 11.4989L7.45432 11.637C7.67692 12.0589 8.247 12.0922 8.52349 11.6994L8.61735 11.5661L8.6262 9.40045C8.63612 6.97617 8.64403 7.0708 8.41436 6.86314C8.22989 6.69635 8.03043 6.65342 7.80817 6.73273Z" fill="white" fill-opacity="0.8"/>
</svg>
