<svg width="13" height="13" viewBox="0 0 13 13" fill="none" xmlns="http://www.w3.org/2000/svg">
<path d="M0.656854 0.656867C1.19148 0.122245 2.03873 0.0907965 2.61013 0.562521L2.71389 0.656866L6.31294 4.25643L9.91353 0.656867C10.4816 0.0888316 11.4025 0.0888316 11.9706 0.656867C12.5052 1.19149 12.5366 2.03874 12.0649 2.61014L11.9706 2.7139L8.37023 6.31372L11.9706 9.91354C12.5386 10.4816 12.5386 11.4025 11.9706 11.9706C11.4359 12.5052 10.5887 12.5366 10.0173 12.0649L9.91353 11.9706L6.31294 8.37102L2.71389 11.9706C2.14586 12.5386 1.22489 12.5386 0.656854 11.9706C0.122233 11.436 0.0907845 10.5887 0.562509 10.0173L0.656854 9.91354L4.25564 6.31372L0.656854 2.7139C0.0888192 2.14587 0.0888192 1.2249 0.656854 0.656867Z" fill="white" fill-opacity="0.8"/>
</svg>
