<svg width="18" height="18" viewBox="0 0 18 18" fill="none" xmlns="http://www.w3.org/2000/svg">
<path d="M9 0C9.85058 0 10.5496 0.648969 10.6289 1.47877L10.6364 1.63636L10.636 7.36282L16.3636 7.36364C17.2674 7.36364 18 8.09626 18 9C18 9.85058 17.351 10.5496 16.5212 10.6289L16.3636 10.6364L10.636 10.636L10.6364 16.3636C10.6364 17.2674 9.90374 18 9 18C8.14942 18 7.45042 17.351 7.37113 16.5212L7.36364 16.3636L7.36282 10.636L1.63636 10.6364C0.732625 10.6364 0 9.90374 0 9C0 8.14942 0.648969 7.45042 1.47877 7.37113L1.63636 7.36364L7.36282 7.36282L7.36364 1.63636C7.36364 0.732625 8.09626 0 9 0Z" fill="url(#paint0_linear_172_110)" fill-opacity="0.8"/>
<defs>
<linearGradient id="paint0_linear_172_110" x1="0.408691" y1="0.408691" x2="17.5905" y2="17.5905" gradientUnits="userSpaceOnUse">
<stop stop-color="#5D79DC"/>
<stop offset="1" stop-color="#00BCFF"/>
</linearGradient>
</defs>
</svg>
